<svg width="36" height="34" viewBox="0 0 36 34" fill="none" xmlns="http://www.w3.org/2000/svg">
<path d="M8.39366 26.4689C8.09602 26.4106 7.8579 26.3523 7.56025 26.2357C7.2626 26.1191 7.02448 26.0608 6.78637 25.9442C6.2506 25.711 5.77436 25.4195 5.29813 25.0696C4.34565 24.4283 3.57177 23.5538 2.97648 22.5044C2.38118 21.5133 2.024 20.3472 1.96447 19.2395C1.90494 18.6565 1.96447 18.1318 2.024 17.5488C2.08353 17.2572 2.14306 17.024 2.20259 16.7325C2.26212 16.441 2.38118 16.2078 2.44071 15.9163L2.50024 16.7325C2.50024 17.024 2.55977 17.2572 2.6193 17.5488C2.67883 18.0735 2.79789 18.5982 2.91695 19.0646C3.15506 20.0557 3.51224 20.9885 4.04801 21.8631C4.58377 22.7376 5.17907 23.5538 5.95295 24.3117C6.31013 24.6615 6.72684 25.0113 7.14354 25.3612C7.32213 25.5361 7.56025 25.711 7.79837 25.8859L8.39366 26.4689ZM8.21507 28.5677C8.03649 28.6843 7.79837 28.7426 7.56025 28.8009C7.32213 28.8592 7.14354 28.9175 6.90543 28.9175C6.48872 28.9759 6.01248 29.0342 5.53625 28.9759C4.6433 28.9175 3.69083 28.6843 2.91695 28.2762C2.08353 27.8681 1.36918 27.2268 0.892943 26.4689C0.654825 26.1191 0.416707 25.711 0.238118 25.3029C0.178589 25.128 0.119059 24.8947 0.0595295 24.6615C0.0595295 24.4866 0 24.3117 0 24.0785C0.178589 24.2534 0.297648 24.4283 0.416707 24.5449C0.595295 24.7198 0.714354 24.8947 0.833413 25.0113C1.13106 25.3029 1.36918 25.5944 1.66683 25.8276C2.26212 26.3523 2.85742 26.8187 3.57177 27.1685C4.2266 27.5183 5.00048 27.8098 5.71483 28.043C6.07201 28.1596 6.48872 28.2179 6.90543 28.3345C7.08401 28.3928 7.32213 28.3928 7.50072 28.4511C7.79837 28.5094 7.97696 28.5094 8.21507 28.5677ZM21.6687 0.233206C21.9664 0.291508 22.2045 0.408111 22.5022 0.524714C22.7998 0.641317 23.0379 0.75792 23.276 0.874523C23.8118 1.16603 24.288 1.45754 24.7643 1.80735C25.7168 2.50696 26.4906 3.43979 27.0264 4.48922C27.5622 5.53864 27.8598 6.70467 27.8598 7.8124C27.8598 8.39542 27.8003 8.92013 27.6812 9.50315C27.6217 9.79465 27.5622 10.0279 27.4431 10.3194C27.3241 10.6109 27.2645 10.8441 27.1455 11.0773L27.0859 10.2611C27.0859 9.96956 27.0859 9.73635 27.0264 9.44484L26.8478 7.8707C26.6692 6.87958 26.3121 5.88845 25.8358 4.95563C25.3596 4.0228 24.7643 3.20658 24.0499 2.44866C23.6928 2.04055 23.276 1.69074 22.9189 1.28263C22.7403 1.10773 22.5022 0.932824 22.264 0.75792L21.6687 0.233206ZM26.8478 0C27.0859 0.0583015 27.2645 0.116603 27.4431 0.233206C27.6217 0.291508 27.8598 0.408111 28.0384 0.524714C28.3956 0.75792 28.7528 0.991126 29.1099 1.28263C29.7648 1.86565 30.3005 2.56527 30.5982 3.38149C30.9554 4.19771 31.0744 5.07223 30.9554 5.94675C30.8958 6.35487 30.7768 6.76297 30.6577 7.17108C30.5982 7.34599 30.4791 7.5792 30.4196 7.7541C30.3005 7.929 30.241 8.10391 30.0624 8.27881V7.6958V7.11278C30.0624 6.70467 30.0029 6.35486 30.0029 6.00505C29.8838 5.24714 29.7648 4.54752 29.4671 3.9062C29.1695 3.20658 28.8123 2.62357 28.3956 1.98225C28.1575 1.69074 27.9193 1.34093 27.6812 1.04943C27.5622 0.874523 27.4431 0.75792 27.2645 0.583015C27.1455 0.291508 26.9669 0.116603 26.8478 0Z" fill="white"/>
<path d="M4.33186 8.65583C3.11368 9.17829 2.68732 10.5715 3.2355 11.7325L10.91 27L15.1737 25.0843L7.49913 9.7588C6.95095 8.59778 5.55004 8.07532 4.33186 8.65583ZM24.4927 20.7885L29 18.7567L20.2291 1.34138C19.62 0.180355 18.1582 -0.342106 16.8791 0.238406C15.6609 0.818918 15.1128 2.21215 15.7218 3.43122L24.4927 20.7885Z" fill="#FFDD67"/>
<path d="M17.3512 0.235149C17.2341 0.29271 17.1171 0.350271 17 0.465393C18.1122 0.177588 19.2829 0.695637 19.8098 1.73173L28.239 19L29 18.6546L20.5707 1.38637C19.9854 0.177589 18.5805 -0.340459 17.3512 0.235149Z" fill="#EBA352"/>
<path d="M15.2737 26L20 23.7875L10.9771 5.48922C10.3633 4.23345 8.76736 3.63547 7.47837 4.23345C6.18937 4.83144 5.63695 6.38619 6.25075 7.64195L15.2737 26Z" fill="#FFDD67"/>
<path d="M8.3681 4.24205C8.2454 4.30161 8.1227 4.36117 8 4.48029C9.16564 4.1825 10.5153 4.71852 11.0675 5.85013L16.6503 17.2257L18 18L11.865 5.49278C11.2515 4.1825 9.71779 3.64647 8.3681 4.24205Z" fill="#EBA352"/>
<path d="M19.2737 22L24 19.7852L14.9771 1.4678C14.3633 0.21073 12.7674 -0.387876 11.4784 0.270591C10.1894 0.869197 9.63695 2.42557 10.2508 3.68265L19.2737 22Z" fill="#FFDD67"/>
<path d="M11.1271 0.236933C11.0103 0.295231 10.8935 0.411827 10.7766 0.470125C11.8866 0.178635 13.1718 0.703318 13.6976 1.81098L19.7148 14.4034L21 15.1613L14.457 1.46119C13.8729 0.178635 12.354 -0.346049 11.1271 0.236933ZM4.35052 8.57357C4.23368 8.63186 4.11684 8.69016 4 8.80676C5.05155 8.51527 6.16151 9.03995 6.62887 10.0893L11.0103 19.2421L12.2955 20L7.38832 9.73953C6.86254 8.51527 5.5189 7.99058 4.35052 8.57357Z" fill="#EBA352"/>
<path d="M34.5814 7.43177C32.9874 6.21478 30.3898 7.54767 29.091 11.7202C28.2054 14.6178 28.0873 15.4871 26.1981 16.3564L25.1355 14.2121C25.1355 14.2121 8.36898 22.1516 9.01839 23.4265C9.01839 23.4265 11.0256 29.5694 14.4498 32.409C19.527 36.6975 31.3934 32.1193 31.9247 21.0505C32.2199 14.6178 36.2935 8.76466 34.5814 7.43177Z" fill="#FFDD67"/>
<path d="M35.2682 7.40495C34.9613 7.17355 34.5932 7.05785 34.225 7C34.2863 7.05785 34.4091 7.05785 34.4704 7.1157C36.3113 8.44626 34.4091 11.5123 33.3659 14.2892C32.5068 16.4875 31.7704 18.7436 31.8932 20.942C32.3841 30.5451 22.1364 35.1153 16 33.3798C22.0136 35.7517 33.1818 31.2393 32.6909 21.2312C32.5682 19.0329 33.2432 16.8924 34.1636 14.5784C35.1454 11.8016 37.0477 8.73551 35.2682 7.40495Z" fill="#EBA352"/>
<path d="M27 16C23.0844 16.399 17.3374 21.4715 21.3793 27C18.411 21.4145 23.2739 17.6528 26.3685 16.342C26.6842 16.114 27 16 27 16Z" fill="#EBA352"/>
</svg>
