<svg width="60" height="60" viewBox="0 0 60 60" fill="none" xmlns="http://www.w3.org/2000/svg">
<g clip-path="url(#clip0_0_1297)">
<rect width="60" height="60" rx="9.9798" fill="#C2D8FA"/>
<circle cx="23.3759" cy="9.32702" r="1" transform="rotate(-31.63 23.3759 9.32702)" fill="#6498EC" fill-opacity="0.3"/>
<circle cx="16.4397" cy="5.81755" r="2.5" transform="rotate(-31.63 16.4397 5.81755)" fill="#6498EC" fill-opacity="0.3"/>
<circle cx="22.7518" cy="2.65404" r="2" transform="rotate(-31.63 22.7518 2.65404)" fill="#6498EC" fill-opacity="0.3"/>
<path d="M34.2832 2.59084L23.0528 24.738L18.526 17.9744C16.437 14.8532 12.3494 14.8455 11.4772 17.8545L2.84364 40.7868L-2.73801 32.4471C-4.2018 30.26 -7.73921 24.4398 -9.39522 25.5481L-26.6357 37.0869C-28.2917 38.1952 -23.025 45.3813 -21.5612 47.5684L7.1956 90.5349C8.65939 92.722 11.1884 93.5965 12.8444 92.4882L70.814 53.6901C72.47 52.5818 72.6258 49.9104 71.162 47.7233L41.1275 2.84759C39.0384 -0.273746 35.1554 -0.418106 34.2832 2.59084Z" fill="#6498EC" fill-opacity="0.19"/>
<path d="M56.4595 -1.27831L39.554 16.8018L37.2804 13.1419C36.2312 11.4529 32.4129 12.404 30.727 14.7075L16.0214 32.7279L13.2179 28.215C12.4827 27.0315 10.8607 23.7983 8.99222 24.9591L-10.4606 37.0437C-12.3291 38.2045 -9.48612 41.9861 -8.7509 43.1696L5.69287 66.4199C6.42809 67.6034 8.53878 67.6218 10.4073 66.4611L75.8157 25.8275C77.6842 24.6668 78.6029 22.7664 77.8677 21.5829L62.7822 -2.70054C61.7329 -4.38958 58.1454 -3.58178 56.4595 -1.27831Z" fill="white"/>
<path d="M12.6267 51.6005C13.0663 52.2721 13.6252 52.6433 14.3033 52.7142C14.9979 52.7743 15.7301 52.5524 16.4999 52.0484C17.1879 51.598 17.6206 51.151 17.7981 50.7072C17.9756 50.2634 18.0289 49.7371 17.958 49.1283C17.8922 48.563 18.0394 48.1624 18.3998 47.9265L23.7069 44.4523C23.8544 44.3558 24.0147 44.3327 24.1881 44.383C24.3671 44.4062 24.5048 44.4916 24.6013 44.639C25.2554 45.6382 25.5629 46.8408 25.524 48.2469C25.4743 49.6366 24.9706 51.1013 24.0128 52.6408C23.0607 54.1533 21.6019 55.5529 19.6363 56.8397C17.8836 57.987 16.1477 58.749 14.4287 59.1255C12.7153 59.475 11.0981 59.3637 9.57705 58.7916C8.0453 58.2032 6.73793 57.0817 5.65496 55.4273L3.75708 52.528C2.67411 50.8736 2.17473 49.2349 2.25895 47.612C2.33244 45.9727 2.87741 44.4459 3.89384 43.0318C4.91592 41.5905 6.3033 40.2962 8.05598 39.1488C10.0216 37.862 11.8933 37.0931 13.671 36.8419C15.4544 36.5636 16.9982 36.6879 18.3024 37.2147C19.5959 37.7251 20.5697 38.4799 21.2237 39.4791C21.3202 39.6266 21.3487 39.7951 21.3091 39.9849C21.2751 40.1475 21.1845 40.2771 21.037 40.3736L15.7299 43.8478C15.3695 44.0837 14.9435 44.0584 14.4517 43.7719C13.9222 43.4634 13.4186 43.3017 12.9408 43.2868C12.4631 43.272 11.8803 43.4897 11.1923 43.9401C10.4224 44.4441 9.92614 45.0264 9.70339 45.687C9.49702 46.3369 9.61365 46.9976 10.0533 47.6692L12.6267 51.6005Z" fill="#6498EC"/>
<path d="M53.9074 9.35982C54.0876 9.24187 54.2861 9.20552 54.5029 9.25078C54.7197 9.29604 54.8871 9.40877 55.0051 9.58895L65.3952 25.4616C65.5131 25.6418 65.5495 25.8403 65.5042 26.0571C65.4589 26.2739 65.3462 26.4413 65.166 26.5593L60.3503 29.7118C60.1701 29.8298 59.9716 29.8661 59.7548 29.8209C59.538 29.7756 59.3706 29.6629 59.2526 29.4827L51.9023 18.2539L46.9883 21.4708L54.3386 32.6996C54.4565 32.8798 54.4929 33.0783 54.4476 33.2951C54.4024 33.5119 54.2896 33.6793 54.1094 33.7973L49.2937 36.9498C49.1135 37.0678 48.9204 37.1123 48.7143 37.0835C48.4975 37.0382 48.3247 36.9173 48.196 36.7207L37.8059 20.8481C37.688 20.6679 37.6516 20.4694 37.6969 20.2526C37.7422 20.0357 37.8549 19.8683 38.0351 19.7504L53.9074 9.35982Z" fill="#6498EC"/>
<path d="M33.6747 36.741C33.4926 36.8602 32.9616 37.0862 32.7399 37.0365C32.5182 36.9869 32.2315 36.9218 32.1088 36.7343L31.4546 35.7327C31.3319 35.5453 31.3066 35.1312 31.3498 34.9082C31.393 34.6851 31.8314 34.3169 32.0136 34.1977L35.3477 32.02C34.8853 31.4219 33.8813 30.4547 32.5249 30.357C31.8548 30.3088 31.1554 30.5231 30.427 31C29.0693 31.8888 28.4215 32.9947 28.4833 34.3176C28.4905 34.6538 28.4696 34.9109 28.4206 35.0891C28.3717 35.2672 28.2479 35.4213 28.0492 35.5514L23.1816 38.7379C23.0326 38.8355 22.8667 38.8711 22.6839 38.8447C22.5064 38.7904 22.3675 38.6866 22.2671 38.5332C21.6089 37.5276 21.3232 36.2782 21.41 34.7848C21.4857 33.2745 22.0069 31.7402 22.9737 30.1821C23.9293 28.607 25.326 27.2178 27.1637 26.0148C28.9353 24.855 30.6922 24.1066 32.4345 23.7694C34.1823 23.4043 35.8411 23.5358 37.411 24.1636C38.9697 24.7745 40.3124 25.9406 41.4392 27.662L43.4139 30.6787C44.5407 32.4002 45.0778 34.1059 45.0251 35.796C44.9613 37.469 44.4182 39.042 43.3956 40.5148C42.3784 41.9599 40.9841 43.2622 39.2126 44.422C37.3748 45.6251 35.5486 46.358 33.7339 46.6208C31.9081 46.8665 30.2936 46.7305 28.8903 46.2126C27.4759 45.6778 26.4396 44.9075 25.7814 43.9019C25.681 43.7486 25.647 43.5882 25.6794 43.4209C25.7172 43.2257 25.8106 43.0794 25.9596 42.9818L30.8271 39.7953C31.0258 39.6652 31.2165 39.6134 31.3994 39.6398C31.5822 39.6661 31.8262 39.7499 32.1314 39.8909C33.3191 40.4769 34.5917 40.3254 35.9493 39.4367C36.6778 38.9598 37.154 38.4046 37.3779 37.771C37.9895 36.0647 37.3608 35.2094 37.0089 34.5633L33.6747 36.741Z" fill="#6498EC"/>
<circle cx="4.12765" cy="12.9811" r="3" transform="rotate(-31.63 4.12765 12.9811)" fill="#6498EC"/>
<circle cx="1.75189" cy="20.6543" r="2" transform="rotate(-31.63 1.75189 20.6543)" fill="#6498EC"/>
</g>
<defs>
<clipPath id="clip0_0_1297">
<rect width="60" height="60" rx="9.9798" fill="white"/>
</clipPath>
</defs>
</svg>
